<?xml version="1.0" encoding="UTF-8"?>
<svg width="32px" height="51px" viewBox="0 0 32 51" version="1.1" xmlns="http://www.w3.org/2000/svg" xmlns:xlink="http://www.w3.org/1999/xlink">
    <!-- Generator: Sketch 64 (93537) - https://sketch.com -->
    <title>logo</title>
    <desc>Created with Sketch.</desc>
    <defs>
        <polygon id="path-1" points="0.000109710779 0.057568 22.6410478 0.057568 22.6410478 32.4460192 0.000109710779 32.4460192"></polygon>
    </defs>
    <g id="Symbols" stroke="none" stroke-width="1" fill="none" fill-rule="evenodd">
        <g id="导航" transform="translate(0.000000, -3.000000)">
            <g id="logo" transform="translate(0.000000, 3.000000)">
                <path d="M13.793696,31.534272 L14.298592,31.179008 L18.942784,27.911296 C20.763904,26.630016 21.2016,24.114944 19.92032,22.293824 L18.043648,19.626432 L17.78336,19.25616 L17.668224,19.337248 L12.634048,22.878912 C10.812928,24.160416 10.375232,26.675712 11.656736,28.496608 L13.529824,31.159296 L13.793696,31.534272 Z" id="Fill-1" fill="#434DFF"></path>
                <g id="编组" transform="translate(0.000000, 0.166432)">
                    <mask id="mask-2" fill="white">
                        <use xlink:href="#path-1"></use>
                    </mask>
                    <g id="Clip-4"></g>
                    <path d="M10.1152128,29.4150752 C9.2055488,28.1223712 8.8538688,26.5530272 9.1249088,24.9957792 C9.3959488,23.4387552 10.2570048,22.0804192 11.5494848,21.1709792 L16.6987968,17.5482272 L18.2399168,16.4640672 L22.5084608,3.2962272 C23.3522688,0.6935712 19.9591168,-1.1396448 18.2443968,0.9923872 L1.4464128,21.8788192 C-1.9722752,26.1294432 1.0535168,32.4460192 6.5081408,32.4460192 L12.2476928,32.4460192 L10.1152128,29.4150752 Z" id="Fill-3" fill="#434DFF" mask="url(#mask-2)"></path>
                </g>
                <path d="M25.0560576,18.1822144 L19.3324096,18.1822144 L21.4619776,21.2091264 C22.3714176,22.5016064 22.7230976,24.0711744 22.4520576,25.6281984 C22.1812416,27.1852224 21.3199616,28.5435584 20.0274816,29.4529984 L14.8781696,33.0757504 L13.3368256,34.1605824 L13.3334656,34.1561024 L9.0635776,47.3273024 C8.2199936,49.9301824 11.6133696,51.7636224 13.3280896,49.6311424 L30.1186816,28.7487424 C33.5362496,24.4978944 30.5104576,18.1822144 25.0560576,18.1822144" id="Fill-5" fill="#434DFF"></path>
            </g>
        </g>
    </g>
</svg>